<svg width="660" height="189" viewBox="0 0 660 189" fill="none" xmlns="http://www.w3.org/2000/svg">
<circle cx="332.207" cy="94.5" r="94.5" fill="#6CCBFE"/>
<path d="M0 117.292V71.7078H16.2567L25.5159 90.5361L34.7045 71.7078H50.9612V117.292H33.8563V101.295L29.8275 109.506H21.1337L17.1049 101.295V117.292H0Z" fill="#131A35"/>
<path d="M85.9495 118C80.8133 118 76.4311 117.245 72.8028 115.735C69.1745 114.178 66.3944 111.677 64.4624 108.232C62.5304 104.787 61.5645 100.21 61.5645 94.5C61.5645 88.743 62.5304 84.1657 64.4624 80.7681C66.3944 77.3233 69.1745 74.8459 72.8028 73.3358C76.4311 71.7786 80.8133 71 85.9495 71C91.0857 71 95.4679 71.7786 99.0962 73.3358C102.725 74.8459 105.505 77.3233 107.437 80.7681C109.369 84.1657 110.335 88.743 110.335 94.5C110.335 100.21 109.369 104.787 107.437 108.232C105.505 111.677 102.725 114.178 99.0962 115.735C95.4679 117.245 91.0857 118 85.9495 118ZM85.9495 103.489C88.4469 103.489 90.2139 102.829 91.2506 101.508C92.3344 100.139 92.8763 97.8032 92.8763 94.5C92.8763 91.1968 92.3344 88.8845 91.2506 87.5633C90.2139 86.1948 88.4469 85.5105 85.9495 85.5105C83.4521 85.5105 81.6615 86.1948 80.5777 87.5633C79.5411 88.8845 79.0227 91.1968 79.0227 94.5C79.0227 97.8032 79.5411 100.139 80.5777 101.508C81.6615 102.829 83.4521 103.489 85.9495 103.489Z" fill="#131A35"/>
<path d="M143.889 118C138.753 118 134.37 117.245 130.742 115.735C127.114 114.178 124.334 111.677 122.402 108.232C120.47 104.787 119.504 100.21 119.504 94.5C119.504 88.743 120.47 84.1657 122.402 80.7681C124.334 77.3233 127.114 74.8459 130.742 73.3358C134.37 71.7786 138.753 71 143.889 71C149.025 71 153.407 71.7786 157.036 73.3358C160.664 74.8459 163.444 77.3233 165.376 80.7681C167.308 84.1657 168.274 88.743 168.274 94.5C168.274 100.21 167.308 104.787 165.376 108.232C163.444 111.677 160.664 114.178 157.036 115.735C153.407 117.245 149.025 118 143.889 118ZM143.889 103.489C146.386 103.489 148.153 102.829 149.19 101.508C150.274 100.139 150.816 97.8032 150.816 94.5C150.816 91.1968 150.274 88.8845 149.19 87.5633C148.153 86.1948 146.386 85.5105 143.889 85.5105C141.391 85.5105 139.601 86.1948 138.517 87.5633C137.48 88.8845 136.962 91.1968 136.962 94.5C136.962 97.8032 137.48 100.139 138.517 101.508C139.601 102.829 141.391 103.489 143.889 103.489Z" fill="#131A35"/>
<path d="M178.857 117.292V71.7078H193.205L205.928 89.5452V71.7078H223.032V117.292H208.613L195.962 99.4548V117.292H178.857Z" fill="#131A35"/>
<path d="M235.07 117.292V71.7078H252.175V86.5723H263.555V71.7078H280.66V117.292H263.555V102.428H252.175V117.292H235.07Z" fill="#131A35"/>
<path d="M291.251 117.292L308.78 71.7078H326.521L344.05 117.292H326.238L322.987 108.798H312.314L309.063 117.292H291.251ZM314.152 97.119H321.078L317.615 88.4127L314.152 97.119Z" fill="#131A35"/>
<path d="M376.61 118C367.657 118 360.871 116.018 356.253 112.054C351.683 108.09 349.397 102.239 349.397 94.5C349.397 86.761 351.659 80.9096 356.183 76.9458C360.753 72.9819 367.515 71 376.468 71C379.39 71 381.958 71.2124 384.172 71.637C386.434 72.0617 388.649 72.6752 390.816 73.4774V88.4127C386.528 86.4307 382.123 85.4398 377.599 85.4398C374.301 85.4398 371.685 86.1004 369.753 87.4217C367.822 88.6958 366.856 91.0552 366.856 94.5C366.856 97.9448 367.845 100.328 369.824 101.649C371.803 102.923 374.442 103.56 377.74 103.56C382.264 103.56 386.67 102.569 390.958 100.587V115.523C388.79 116.278 386.576 116.867 384.314 117.292C382.099 117.764 379.531 118 376.61 118Z" fill="#131A35"/>
<path d="M401.572 117.292V71.7078H418.676V84.4488L428.643 71.7078H447.939L432.389 90.6069L449.352 117.292H431.258L421.928 101.437L418.676 105.401V117.292H401.572Z" fill="#131A35"/>
<path d="M478.349 117.292V109.718C479.716 107.5 481.247 105.471 482.943 103.631C484.64 101.743 486.572 99.8559 488.739 97.9684C491.378 95.7033 493.286 93.9573 494.464 92.7304C495.642 91.5035 496.231 90.2294 496.231 88.9081C496.231 86.6903 494.606 85.5813 491.354 85.5813C489.234 85.5813 487.184 85.8173 485.205 86.2892C483.273 86.761 481.436 87.3745 479.692 88.1295V73.9021C481.765 73.0055 484.216 72.2977 487.043 71.7786C489.87 71.2595 492.815 71 495.878 71C501.91 71 506.386 72.3685 509.307 75.1054C512.229 77.8424 513.69 81.4287 513.69 85.8645C513.69 87.7992 513.478 89.4744 513.054 90.8901C512.63 92.3057 511.923 93.6506 510.933 94.9247C509.991 96.1516 508.695 97.4965 507.046 98.9593C506.103 99.8087 505.067 100.729 503.936 101.72C502.805 102.664 501.98 103.513 501.462 104.268H514.043V117.292H478.349Z" fill="#131A35"/>
<path d="M546.214 118C538.062 118 532.196 115.971 528.615 111.913C525.033 107.854 523.243 102.05 523.243 94.5C523.243 86.9026 525.033 81.0984 528.615 77.0874C532.196 73.0291 538.062 71 546.214 71C554.366 71 560.233 73.0291 563.814 77.0874C567.395 81.0984 569.186 86.9026 569.186 94.5C569.186 102.05 567.395 107.854 563.814 111.913C560.233 115.971 554.366 118 546.214 118ZM546.214 103.419C548.24 103.419 549.654 102.687 550.455 101.224C551.303 99.7615 551.727 97.5201 551.727 94.5C551.727 91.4799 551.303 89.2385 550.455 87.7756C549.654 86.3128 548.24 85.5813 546.214 85.5813C544.188 85.5813 542.751 86.3128 541.903 87.7756C541.102 89.2385 540.701 91.4799 540.701 94.5C540.701 97.5201 541.102 99.7615 541.903 101.224C542.751 102.687 544.188 103.419 546.214 103.419Z" fill="#131A35"/>
<path d="M578.352 117.292V109.718C579.719 107.5 581.25 105.471 582.946 103.631C584.643 101.743 586.575 99.8559 588.742 97.9684C591.381 95.7033 593.289 93.9573 594.467 92.7304C595.645 91.5035 596.234 90.2294 596.234 88.9081C596.234 86.6903 594.609 85.5813 591.357 85.5813C589.237 85.5813 587.187 85.8173 585.208 86.2892C583.276 86.761 581.439 87.3745 579.695 88.1295V73.9021C581.768 73.0055 584.219 72.2977 587.046 71.7786C589.873 71.2595 592.818 71 595.881 71C601.912 71 606.389 72.3685 609.31 75.1054C612.232 77.8424 613.693 81.4287 613.693 85.8645C613.693 87.7992 613.481 89.4744 613.057 90.8901C612.633 92.3057 611.926 93.6506 610.936 94.9247C609.994 96.1516 608.698 97.4965 607.049 98.9593C606.106 99.8087 605.07 100.729 603.939 101.72C602.808 102.664 601.983 103.513 601.465 104.268H614.046V117.292H578.352Z" fill="#131A35"/>
<path d="M639.502 118C638.183 118 636.487 117.882 634.413 117.646C632.387 117.41 630.361 117.08 628.335 116.655C626.309 116.23 624.612 115.759 623.246 115.239V102.286C625.366 103.324 627.675 104.056 630.172 104.48C632.67 104.905 634.837 105.117 636.675 105.117C638.607 105.117 640.068 104.929 641.057 104.551C642.047 104.174 642.542 103.395 642.542 102.215C642.542 101.508 642.212 100.941 641.552 100.517C640.94 100.045 639.903 99.8087 638.442 99.8087H630.102L631.162 88.9789H638.018C639.385 88.9789 640.351 88.7666 640.916 88.3419C641.482 87.9172 641.764 87.2565 641.764 86.3599C641.764 85.6049 641.317 85.0151 640.421 84.5904C639.526 84.1185 638.089 83.8825 636.11 83.8825C633.942 83.8825 631.727 84.1657 629.466 84.7319C627.251 85.251 625.39 85.9116 623.882 86.7139V73.8313C625.861 73.0291 628.241 72.3685 631.021 71.8494C633.801 71.2831 636.628 71 639.502 71C643.602 71 647.112 71.6135 650.034 72.8404C653.003 74.0201 655.264 75.6481 656.819 77.7244C658.421 79.7535 659.222 82.0658 659.222 84.6611C659.222 86.6903 658.893 88.5306 658.233 90.1822C657.573 91.8338 656.702 93.2495 655.618 94.4292C656.937 95.2314 657.997 96.364 658.798 97.8268C659.599 99.2897 660 101.177 660 103.489C660 106.887 659.081 109.648 657.243 111.771C655.453 113.895 653.003 115.475 649.893 116.514C646.83 117.505 643.366 118 639.502 118Z" fill="#131A35"/>
</svg>
